<?xml version="1.0" encoding="UTF-8"?><svg xmlns="http://www.w3.org/2000/svg" viewBox="0 0 62.1 74.32"><defs><style>.d{fill:#14433c;}</style></defs><g id="a"/><g id="b"><g id="c"><path class="d" d="M55.64,10.63c4.33,3.35,.17,12.79,2,20.04,1.84,7.24,5.41,12.11,4.22,16.44-1.08,4.33-6.92,7.89-10.27,12.54-3.35,4.65-4.22,10.38-7.35,11.14-3.24,.76-8.54-3.35-14.17-3.03-5.62,.43-11.46,5.41-17.63,6.38C6.28,75.11-.21,72.09,0,67.11c.22-5.08,7.03-12.22,10.71-17.3,3.57-4.97,3.89-8,3.57-13.19-.32-5.3-1.19-12.76,1.3-17.19,2.6-4.33,.31-15.99,7.74-17.19,10.16-1.64,25.68-6.97,32.32,8.4Z"/></g></g></svg>