<?xml version="1.0" encoding="UTF-8"?><svg xmlns="http://www.w3.org/2000/svg" viewBox="0 0 508.4 505.63"><defs><style>.d{fill:#fff;}.e{fill:#14433c;}</style></defs><g id="a"/><g id="b"><g id="c"><g><path class="e" d="M19.47,350.49c1.52-1.75,3.08-3.46,4.55-5.25,13.25-16.11,6.03-39.77-14.13-44.95-5.36-1.38-7.29-3.74-7.63-8.84-.34-4.97-1.18-9.91-2.09-14.82-.65-3.51,.51-5.31,3.74-6.93,10.76-5.41,16.6-14.26,16.23-26.45-.29-9.62-4.89-17.22-12.98-22.39-3.26-2.08-4.58-4.05-3.38-8.03,1.24-4.11,2.1-8.49,2.12-12.76,.02-4.73,2.25-5.94,6.33-6.87,22.38-5.13,30.14-29.01,15.13-46.5-2.17-2.52-2.72-4.48-.98-7.42,2.71-4.57,5.44-9.2,7.44-14.1,1.7-4.17,4.34-4.25,8.16-4.27,5.36-.03,11.12-.17,15.98-2.1,13.89-5.5,20.12-20.96,14.6-35.28-1.58-4.09-1.12-6.55,2.23-9.32,4.86-4.02,9.29-8.57,14.01-12.99,1.79,.81,3.65,1.52,5.39,2.44,17.16,9.12,32.36-1.53,37.36-15.6,1.53-4.3,2.15-9.06,2.39-13.64,.15-2.88,.72-4.46,3.47-5.65,6.56-2.84,13.01-5.94,19.39-9.15,2.58-1.3,4.27-1.09,6.51,.94,8.46,7.69,18.59,10.42,29.65,7.77,9.27-2.22,15.26-8.32,17.57-17.83,1.91-7.84,2.03-7.76,9.91-8.56,3.97-.4,8-.67,11.85-1.63,3.8-.95,5.67,.31,7.49,3.58,5.56,9.99,14.17,15.34,25.72,14.99,9.85-.3,17.7-4.87,22.61-13.34,2.58-4.45,5.35-5.43,9.97-4.05,3.97,1.19,8.1,2.06,12.21,2.47,5.12,.51,7.14,2.99,7.86,8.05,1.16,8.19,6.01,14.36,13,18.64,10.05,6.15,22.41,5.2,32.1-2.79,3.42-2.83,6.09-3.35,9.36-.38,.48,.44,1.1,.76,1.69,1.06,8.13,4.04,16.74,7.73,13.34,19.61,2.97,19.66,21.01,30.02,39.38,22.24,3.99-1.69,6.2-1.19,8.83,2.04,4.41,5.41,9.27,10.45,14.05,15.78-3.39,6.85-6.36,13.63-5.08,21.48,2.39,14.74,13.97,24.67,28.91,24.08,4.54-.18,7.76,.39,8.71,5.47,.24,1.26,1.01,2.46,1.68,3.6,4.42,7.48,6.2,13.39-.65,22.04-11.26,14.21-2.6,35.58,14.8,41.09,2.51,.79,5.05,1.46,7.68,2.22,.78,7.31,1.46,14.43,2.34,21.52,.33,2.63-.17,4.3-2.8,5.55-21.15,10-22.68,38.46-1.46,50.57,2.32,1.32,2.72,2.76,2.15,5.21-1.35,5.83-2.59,11.69-3.56,17.6-.49,2.97-1.81,3.94-4.76,4.47-13.86,2.52-22.81,11.61-24.35,24.75-1,8.57,1.81,16.15,7.68,22.41,2.25,2.4,2.29,4.26,.59,6.92-2.95,4.62-5.8,9.35-8.23,14.26-1.51,3.05-3.27,3.79-6.6,3.53-14.79-1.15-25.11,4.08-30.36,15.22-4.46,9.46-3.12,18.78,1.44,28.11-5.54,5.1-10.93,10.3-16.64,15.11-1.1,.92-3.53,.7-5.23,.39-5.48-1-11.02-3.62-16.35-3.21-15.98,1.23-26.26,13.27-25.54,29.37,.23,5.07-1.19,7.43-5.91,8.91-4.08,1.29-8.06,3.24-11.71,5.49-4.25,2.62-7.07,2.59-11.08-1.19-12.23-11.51-30.78-9.77-40.86,3.6-2.62,3.47-4.04,7.94-5.49,12.14-.86,2.48-1.66,3.85-4.6,4.09-5.63,.46-11.27,1.22-16.78,2.41-3.39,.73-5.18-.05-6.68-3.12-3.77-7.73-9.91-12.91-18.2-15.24-11.75-3.31-23.98,1.63-30.96,12.7-2.19,3.48-4.29,4.73-8.46,3.59-4.94-1.35-10.12-1.95-15.24-2.51-3.21-.36-4.47-1.85-5.09-4.92-4.8-24.02-27.8-32.43-46.91-17.13-2.44,1.95-4.26,2.25-7,.54-4.37-2.72-8.89-5.34-13.65-7.25-4.1-1.65-4.84-3.96-4.19-8.02,2.17-13.57-6.1-26.58-19.18-30.65-6.98-2.17-13.87-1.65-20.43,1.44-2.91,1.37-4.81,.92-6.92-1.41-3.67-4.08-7.42-8.15-11.53-11.77-2.94-2.58-2.98-4.65-1.32-8.04,8.31-17.05,.44-35.16-17.43-40.04-3.59-.98-7.6-.34-11.34-.92-1.64-.25-3.82-1.3-4.53-2.63-3.33-6.31-6.23-12.85-9.36-19.48Zm39.03-77.39l-1.28-.64c-.32-3.95-.53-7.91-.98-11.85-.74-6.52-3.15-12.35-8.48-16.38-1.79-1.36-4.73-2.51-6.63-1.97-1.4,.4-2.26,3.64-2.83,5.75-.59,2.21-.29,4.65-.82,6.89-2.3,9.69-7.18,17.77-14.89,24.23-1.18,.99-1.84,4.83-1.64,4.92,4.15,1.89,7.44,5.47,13.18,3.68,13.61-4.23,29.01,2.55,35.37,14.8,4.84,9.32,5.27,19.47,5.06,29.68-.02,.98-.82,1.94-1.25,2.91l-1.4,.25c-.9-2.29-2.02-4.52-2.64-6.88-1.58-6-4.98-10.64-10.54-13.19-2.12-.97-5.6-1.3-7.32-.18-1.6,1.05-2.47,4.46-2.33,6.74,.62,9.55-.62,18.57-5.56,26.93-.8,1.35-1.27,2.9-1.95,4.5,4.4,2.26,7.87,2.17,11.5-.66,3.26-2.54,6.79-4.9,10.52-6.64,10.15-4.72,20.22-4.14,29.32,2.49,8.91,6.49,10.52,16.53,12.25,25.78-6.04-.87-11.56-2.4-17.04-2.3-8.77,.16-11.47,4.71-7.68,12.58,3.82,7.91,4.24,15.95,2.75,24.33-.3,1.7-.58,3.4-.89,5.26,.77-.14,1.21-.09,1.38-.28,1.03-1.08,1.97-2.24,2.98-3.34,9.65-10.42,21.14-16.58,35.79-15.38,10.43,.86,20.21,3.67,29.28,9.06,39.05,23.21,80.84,34.66,126.5,28.81,41.65-5.34,77.84-22.46,107.83-51.82,32.65-31.97,51.14-70.94,55.1-116.58,2.12-24.45,15.86-36.31,36.1-40.29,3.61-.71,7.39-.58,11.6-.87-.77-.96-.99-1.48-1.37-1.67-9.86-4.93-17.21-11.93-21.58-22.46-3.19-7.67-12.34-7.62-17.1-.27-2.21,3.4-3.42,7.45-5.06,11.17-16.25-14.54-11.72-39.82,8.61-47.13,2.34-.84,4.74-1.78,7.18-2.05,5.18-.56,7.23-3.8,8.45-8.76-2.11-.57-4.05-.93-5.88-1.61-4.95-1.84-10.09-3.36-14.7-5.86-3.74-2.02-6.85-5.24-10.19-7.98-4.84-3.96-8.41-2.95-9.6,3.18-1.27,6.53-.95,12.9,3.92,18.32,1.42,1.58,2.07,3.83,3.68,6.95-2.58-.66-3.41-.76-4.15-1.08-25.86-11.32-30.69-40.89-9.3-59.21,4.69-4.02,5.26-8.61,6.12-13.89-.89-.25-1.55-.65-2.11-.55-13.35,2.29-25.76,.24-37.28-7.25-3.76-2.45-5.64,.62-6.24,3.79-.88,4.68-.57,9.36,2.73,13.25,3.73,4.39,7.56,8.69,12.36,14.19-5.54-.68-10.03-.68-14.2-1.82-26.4-7.24-31.99-20.9-21.95-42.05,.64-1.35,1.26-2.72,1.95-4.04,2.15-4.13,4.63-8.12,6.36-12.42,.74-1.85-.06-4.33-.16-6.52-1.86,.35-3.91,.32-5.55,1.12-10.09,4.95-20.57,5.36-31.12,2.42-5-1.4-9.65-4.09-14.85-6.36-.03,7.07-2.76,14.7,2.05,20.39,4.33,5.12,10.65,8.56,15.84,12.55-.5,.14-1.88,.7-3.32,.88-17.86,2.15-34.49-14.44-32.58-32.46,.44-4.14,.93-8.27,1.3-12.41,.36-4.03,.6-8.07,.9-12.1-1.19-.07-1.61-.24-1.8-.09-1.18,.9-2.32,1.86-3.46,2.81-11.6,9.66-24.11,15.92-39.85,11.43-1.74-.5-4.78,.07-5.74,1.29-.97,1.23-.55,4.08,.11,5.91,.7,1.94,2.13,3.84,3.71,5.2,2.27,1.94,4.98,3.37,7.66,5.12-7.37,3.82-13.4,3.33-19.24-1.74-7.31-6.34-11.63-14.4-13.16-23.99-.41-2.58-1.28-5.09-2.29-8.95-1.44,2.26-2.01,3.03-2.44,3.86-14.88,28.58-48.28,31.46-66.47,18.02-4.26-3.15-6.46-1.74-7.09,3.76-2.7,23.3-22.11,40.58-45.66,40.42-4.56-.03-9.12-.79-15.2-1.36,2.56,3.32,4.29,5.81,6.26,8.08,5.92,6.8,8.88,14.81,9.38,23.67,.49,8.64-3.95,14.89-10.02,16.05-.39-4.56-.33-9.31-1.38-13.8-.45-1.89-3.1-4.21-5.02-4.49-1.39-.2-4,2.32-4.73,4.16-4.17,10.53-12.72,16.01-22.55,19.78-4.99,1.92-10.44,2.66-16.6,4.15,1.7,1.42,2.93,2.63,4.33,3.57,4.7,3.16,9.57,6.06,14.16,9.36,8.92,6.39,13.82,15.14,14.51,26.14,.63,10.19-5.52,21.63-13.54,24.71,1.08-2.88,2.21-5.43,2.99-8.09,3.05-10.4-1.25-19.98-10.63-24.06-3.55-1.54-5.61-.88-6.34,3.31-2.54,14.53-10.94,24.59-24.04,31.01-1.72,.84-3.23,2.11-6.43,4.25,4.24,1.97,7.09,3.76,10.19,4.63,7.03,1.97,14.22,3.37,21.29,5.23,5.67,1.5,9.49,5.25,11.79,10.64,5.41,12.66,4.67,24.98-2.16,36.89-.99,1.73-2.71,3.04-4.1,4.54Zm82.05,185.32c.51,.27,1.01,.53,1.52,.8,5.17-5.75,10.52-11.37,15.42-17.34,1.47-1.79,2.02-4.54,2.4-6.94,.18-1.13-.67-3.06-1.64-3.64-6.54-3.94-12.96-8.26-19.95-11.21-6.69-2.82-13.99-4.99-22.32-1.22,15.59,9.18,23.01,22.59,24.57,39.56ZM470.88,252.44c-.43-.38-.86-.76-1.29-1.14-2.24,2.57-5.92,4.88-6.47,7.77-2.2,11.56-3.5,23.3-4.88,35-.14,1.19,1.19,3.49,2.22,3.74,8.52,2.13,16.85,.26,26.23-1.32-12.91-12.69-18.37-27.01-15.82-44.05Zm-241.52,202.13c-18.84-5.14-25.29-3.31-33.07,8.24,4.79,6.93,9.44,13.67,14.39,20.84,8.78-7.67,9.8-20.47,18.68-29.08Zm231.34-87.61c-2.16-9.04-3.89-16.4-5.71-23.75-.17-.7-.93-1.89-1.24-1.84-4.62,.77-10.7,.21-13.48,2.95-4.51,4.44-6.85,11.08-10.21,16.98,10.52,1.94,20.46,3.77,30.64,5.65Zm-101.8,97.18c-1.97-8.57-3.7-16.68-5.86-24.68-.21-.79-3.27-1.58-4.61-1.15-3.13,1.01-5.94,2.96-9.02,4.19-3.87,1.54-4.24,3.86-2.02,6.97,4.15,5.82,8.19,11.73,12.64,17.31,1.24,1.56,4.08,3.23,5.58,2.79,1.48-.43,2.2-3.48,3.29-5.44Zm30.79-54.45c7.46,4.19,14.52,8.21,21.64,12.13,2.62,1.44,5.96,3.48,7.94,.25,.94-1.53-.38-5.27-1.76-7.26-4.52-6.49-9.54-12.62-14.51-19.07-4.35,4.55-8.9,9.33-13.31,13.95Zm-123.02,47.77c6.45,9.63,7.8,20.94,15.52,28.72,.55-.1,1.1-.2,1.66-.3,1.58-9.54,3.16-19.07,4.7-28.42h-21.88Z"/><path class="d" d="M58.5,273.1c1.38-1.5,3.1-2.81,4.1-4.54,6.83-11.9,7.57-24.22,2.16-36.89-2.3-5.39-6.12-9.14-11.79-10.64-7.06-1.86-14.25-3.26-21.29-5.23-3.11-.87-5.95-2.66-10.19-4.63,3.2-2.13,4.71-3.4,6.43-4.25,13.1-6.42,21.51-16.47,24.04-31.01,.73-4.19,2.8-4.85,6.34-3.31,9.38,4.08,13.67,13.66,10.63,24.06-.78,2.66-1.91,5.21-2.99,8.09,8.02-3.08,14.17-14.52,13.54-24.71-.68-10.99-5.58-19.75-14.51-26.14-4.6-3.29-9.47-6.2-14.16-9.36-1.4-.94-2.63-2.15-4.33-3.57,6.16-1.5,11.61-2.24,16.6-4.15,9.83-3.77,18.38-9.25,22.55-19.78,.73-1.84,3.34-4.36,4.73-4.16,1.92,.28,4.57,2.6,5.02,4.49,1.06,4.49,1,9.24,1.38,13.8,6.06-1.16,10.51-7.41,10.02-16.05-.5-8.86-3.47-16.87-9.38-23.67-1.98-2.27-3.7-4.76-6.26-8.08,6.08,.57,10.63,1.33,15.2,1.36,23.55,.15,42.96-17.12,45.66-40.42,.64-5.5,2.84-6.9,7.09-3.76,18.19,13.44,51.59,10.56,66.47-18.02,.43-.83,1-1.6,2.44-3.86,1,3.85,1.88,6.36,2.29,8.95,1.53,9.59,5.84,17.65,13.16,23.99,5.84,5.07,11.87,5.56,19.24,1.74-2.68-1.75-5.39-3.18-7.66-5.12-1.59-1.36-3.02-3.25-3.71-5.2-.66-1.83-1.07-4.68-.11-5.91,.96-1.23,4-1.79,5.74-1.29,15.74,4.49,28.25-1.77,39.85-11.43,1.14-.95,2.28-1.91,3.46-2.81,.19-.14,.61,.02,1.8,.09-.29,4.04-.54,8.07-.9,12.1-.37,4.14-.86,8.28-1.3,12.41-1.91,18.02,14.72,34.61,32.58,32.46,1.43-.17,2.82-.74,3.32-.88-5.19-3.99-11.51-7.43-15.84-12.55-4.81-5.69-2.08-13.32-2.05-20.39,5.2,2.28,9.85,4.96,14.85,6.36,10.55,2.95,21.04,2.54,31.12-2.42,1.64-.8,3.69-.77,5.55-1.12,.1,2.19,.9,4.66,.16,6.52-1.73,4.3-4.21,8.29-6.36,12.42-.69,1.33-1.31,2.69-1.95,4.04-10.05,21.15-4.45,34.81,21.95,42.05,4.17,1.14,8.66,1.14,14.2,1.82-4.8-5.5-8.62-9.8-12.36-14.19-3.31-3.89-3.62-8.57-2.73-13.25,.6-3.17,2.48-6.23,6.24-3.79,11.51,7.49,23.93,9.54,37.28,7.25,.57-.1,1.22,.31,2.11,.55-.87,5.28-1.43,9.88-6.12,13.89-21.39,18.31-16.56,47.89,9.3,59.21,.73,.32,1.57,.42,4.15,1.08-1.61-3.11-2.27-5.37-3.68-6.95-4.87-5.42-5.19-11.79-3.92-18.32,1.19-6.13,4.76-7.14,9.6-3.18,3.35,2.74,6.45,5.95,10.19,7.98,4.61,2.49,9.75,4.02,14.7,5.86,1.82,.68,3.76,1.04,5.88,1.61-1.23,4.96-3.28,8.2-8.45,8.76-2.44,.26-4.83,1.2-7.18,2.05-20.32,7.3-24.86,32.59-8.61,47.13,1.65-3.72,2.86-7.76,5.06-11.17,4.76-7.34,13.91-7.4,17.1,.27,4.37,10.52,11.72,17.53,21.58,22.46,.38,.19,.6,.71,1.37,1.67-4.21,.29-7.99,.16-11.6,.87-20.23,3.98-33.98,15.83-36.1,40.29-3.96,45.64-22.45,84.61-55.1,116.58-29.99,29.37-66.18,46.48-107.83,51.82-45.66,5.85-87.44-5.6-126.5-28.81-9.07-5.39-18.85-8.21-29.28-9.06-14.64-1.2-26.14,4.95-35.79,15.38-1.01,1.1-1.96,2.26-2.98,3.34-.18,.19-.61,.13-1.38,.28,.31-1.86,.59-3.56,.89-5.26,1.49-8.38,1.06-16.42-2.75-24.33-3.79-7.86-1.09-12.42,7.68-12.58,5.49-.1,11,1.43,17.04,2.3-1.73-9.26-3.34-19.3-12.25-25.78-9.11-6.63-19.17-7.21-29.32-2.49-3.74,1.74-7.26,4.1-10.52,6.64-3.63,2.83-7.1,2.92-11.5,.66,.68-1.6,1.15-3.15,1.95-4.5,4.94-8.35,6.18-17.38,5.56-26.93-.15-2.28,.72-5.69,2.33-6.74,1.72-1.12,5.19-.79,7.32,.18,5.56,2.55,8.96,7.2,10.54,13.19,.62,2.36,1.75,4.59,2.64,6.88l1.4-.25c.44-.97,1.23-1.93,1.25-2.91,.21-10.21-.22-20.36-5.06-29.68-6.36-12.25-21.77-19.03-35.37-14.8-5.74,1.79-9.03-1.79-13.18-3.68-.2-.09,.46-3.93,1.64-4.92,7.71-6.45,12.59-14.54,14.89-24.23,.53-2.24,.23-4.68,.82-6.89,.57-2.12,1.43-5.35,2.83-5.75,1.9-.55,4.84,.61,6.63,1.97,5.33,4.03,7.74,9.87,8.48,16.38,.45,3.94,.66,7.9,.98,11.85l1.28,.64Zm365.52-43.02c-1.48,29.55-6.1,53.76-15.96,77.62-26.07,63.06-87.57,104.29-155.18,104.14-38.1-.09-72.62-11.98-104.34-32.31-9.17-5.88-17.07-13.7-25.72-20.42-1.44-1.12-3.73-1.12-5.63-1.64,.34,1.91,.63,3.82,1.04,5.71,.09,.43,.62,.77,.94,1.14,54.89,63.35,141.27,80.03,212.26,46.32,44.51-21.14,75.07-55.02,92.14-100.9,12.08-32.48,13.54-65.96,6.06-99.76-1.58-7.12-3.71-14.14-5.94-21.09-.42-1.32-2.53-2.1-3.86-3.12-.64,1.51-1.42,2.97-1.87,4.53-.2,.71,.28,1.61,.4,2.44,1.89,12.45,3.78,24.91,5.67,37.37ZM136.43,103.71c13.73-.88,25.59-12.85,24.46-25.45-.14-1.55-1.5-3-2.29-4.5-1.25,.9-2.88,1.55-3.67,2.75-5.57,8.46-13.2,12.84-23.44,12.5-1.64-.05-3.42,0-4.91,.58-1.65,.64-4.21,1.83-4.31,2.96-.17,1.98,.64,5.07,2.1,5.95,3.71,2.25,8,3.53,12.06,5.2Zm48.47-39.93c-1-.07-2.04-.34-2.98-.15-1.47,.31-2.86,.94-4.29,1.44,.7,1.39,1.07,3.13,2.15,4.12,7.11,6.54,15.51,7.35,24.2,4.29,8.72-3.07,13.96-9.56,14.86-18.83,.19-1.96-1.55-4.71-3.23-6.01-.89-.68-3.83,.63-5.41,1.69-1.89,1.28-3.36,3.19-4.91,4.93-5.44,6.12-12.19,9.05-20.4,8.52Zm-4.4,75.98l.06-2.14c-1.89-1.48-3.62-3.83-5.71-4.23-3.12-.6-5.83,1.74-5.33,4.91,.32,2.01,2.87,4.95,4.62,5.1,2.01,.16,4.23-2.3,6.36-3.63Zm41.04-11.2l-.04-2.2c-2.1-1.31-4.09-3.4-6.34-3.72-2.95-.42-4.95,1.78-4.81,4.98,.15,3.3,2.15,5.62,5.4,4.98,2.11-.42,3.87-2.63,5.79-4.04Zm-76.35,55.79l-2.08,.06c-1.29,2.15-3.7,4.39-3.54,6.41,.14,1.76,3.06,4.37,5.02,4.64,3.11,.44,5.49-2.17,4.75-5.39-.48-2.11-2.71-3.83-4.15-5.73Zm110.01-61.78c.74,.02,1.48,.04,2.22,.05,1.47-1.87,3.82-3.59,4.2-5.66,.57-3.12-1.83-5.8-4.94-5.33-1.97,.29-4.87,2.87-5.03,4.63-.18,1.98,2.25,4.2,3.55,6.32ZM120.27,243.57v-2.36c-2.06-1.37-4.21-3.91-6.18-3.77-1.75,.12-4.56,3.19-4.57,4.98-.01,1.74,2.84,4.8,4.59,4.92,1.96,.13,4.1-2.39,6.16-3.76Zm19.59-37.19c-2.58,3.25-4.88,4.91-5.29,6.95-.62,3.13,1.51,5.3,4.88,5.46,3.47,.16,5.58-2.1,5.26-5.13-.21-2.04-2.47-3.87-4.86-7.28Zm28.86-38.67l2.31-.08c1.31-1.94,3.45-3.77,3.73-5.85,.43-3.23-2.1-5.61-5.23-4.86-1.98,.47-4.73,3.1-4.77,4.81-.05,1.96,2.53,3.99,3.96,5.98Zm22.73,12.74c-.02-.72-.04-1.44-.06-2.16-1.97-1.36-3.83-3.62-5.93-3.86-3.07-.36-5.78,1.99-5.01,5.21,.47,1.98,3.16,4.73,4.92,4.78,1.99,.05,4.05-2.53,6.08-3.97Zm-56.75-6.37c.04-.74,.08-1.47,.12-2.21-1.88-1.46-3.59-3.71-5.69-4.19-3.17-.71-5.87,1.6-5.47,4.73,.25,1.97,2.83,4.9,4.6,5.09,2,.21,4.28-2.17,6.44-3.42Zm110.93-5l2.25,.07c1.41-2.02,3.95-4.07,3.9-6.06-.04-1.76-2.71-4.48-4.66-4.95-3.22-.78-5.54,1.82-5.13,4.98,.28,2.11,2.36,3.98,3.64,5.95Zm57.86-62.08l.05-2.26c-2.04-1.41-4.11-3.95-6.1-3.89-1.78,.06-4.55,2.76-4.95,4.7-.63,3.07,1.83,5.57,5.08,5.08,2.11-.32,3.95-2.36,5.92-3.63Zm-37.17,26.18c-.02,.77-.03,1.53-.05,2.3,2.04,1.39,4.14,3.93,6.1,3.83,1.74-.09,4.31-2.89,4.76-4.89,.73-3.25-1.98-5.52-5.04-5.13-2.05,.26-3.85,2.53-5.76,3.9Zm-49.65,19.06c.04-.74,.07-1.48,.11-2.21-1.85-1.44-3.52-3.65-5.6-4.15-3.2-.77-5.85,1.53-5.45,4.65,.25,1.96,2.79,4.87,4.56,5.07,1.97,.23,4.25-2.13,6.39-3.36Zm15.77,17.2c-.03-.75-.06-1.49-.09-2.24-2.12-1.29-4.36-3.74-6.34-3.54-1.74,.17-4.22,3.13-4.54,5.14-.5,3.21,2.2,5.45,5.35,4.79,2.07-.43,3.75-2.71,5.61-4.15Zm49.62-18.3c.01,.74,.02,1.48,.03,2.22,1.91,1.33,3.69,3.47,5.75,3.8,3.17,.5,5.3-1.67,5.23-5.06-.07-3.36-2.27-5.5-5.39-4.95-2.05,.36-3.76,2.6-5.62,4Zm-15.89,12.45c.83,0,1.66,.02,2.49,.03,1.31-2.07,3.76-4.23,3.61-6.19-.14-1.77-3.09-4.58-4.84-4.61-1.68-.03-4.66,2.82-4.8,4.58-.16,1.96,2.25,4.12,3.54,6.19Zm-111.07,4.9c0-.82,0-1.64,0-2.46-2.04-1.35-4.16-3.84-6.1-3.7-1.74,.12-4.58,3.14-4.56,4.85,.02,1.81,2.75,4.87,4.5,5.02,1.94,.16,4.1-2.36,6.17-3.71Zm51.95-.4c-.79,0-1.58,.01-2.37,.02-1.32,1.91-3.47,3.71-3.75,5.77-.43,3.13,1.64,5.17,5.13,5.15,3.23-.02,5.36-1.89,4.88-4.82-.36-2.19-2.52-4.09-3.88-6.12Zm-84.53,33.7c.81,.02,1.61,.04,2.42,.06,1.38-1.85,3.54-3.55,3.95-5.6,.65-3.24-1.73-5.75-4.87-5.23-2,.33-4.87,2.82-5.05,4.58-.2,1.92,2.26,4.11,3.56,6.19Zm148.58-91.66l.07,2.37c2.08,1.29,4.28,3.72,6.2,3.52,1.75-.18,4.19-3.05,4.56-5.05,.6-3.28-2.13-5.4-5.24-4.82-2.04,.38-3.74,2.59-5.6,3.97Zm79.39,31.62c1.42-2,3.98-4.04,3.92-6-.05-1.72-2.98-4.59-4.75-4.68-1.73-.08-4.66,2.42-5.17,4.31-.83,3.07,1.48,5.11,6,6.37Zm-97.58-7.78c-.77-.01-1.54-.03-2.31-.04-1.39,2.03-3.93,4.11-3.84,6.07,.08,1.71,2.9,4.21,4.91,4.69,3.3,.8,5.5-1.91,5.11-4.97-.27-2.05-2.51-3.84-3.87-5.75Zm81.36,8.81c-.38-4.98-2.34-6.83-5.56-6.73-3.02,.1-4.8,1.97-4.76,5.18,.05,3.49,2.25,5.5,5.31,5.03,2.05-.32,3.79-2.58,5.01-3.49Zm-24.69-1.97h-2.31c-1.33,2.05-3.8,4.19-3.65,6.11,.14,1.77,2.91,4.3,4.9,4.71,3.26,.69,5.48-2.08,5.06-5.11-.28-2.05-2.6-3.82-4-5.72ZM125.01,220.49c.02-.78,.04-1.56,.06-2.34-2-1.39-4.04-3.9-6-3.84-1.71,.05-4.29,2.75-4.78,4.71-.81,3.23,1.75,5.56,4.88,5.17,2.06-.25,3.9-2.4,5.83-3.7Zm29.21-13.21l.09,2.35c1.94,1.28,3.79,3.4,5.85,3.63,3.18,.36,5.66-2.06,4.85-5.24-.5-1.97-3.14-4.68-4.88-4.72-1.94-.05-3.94,2.54-5.92,3.98Zm164.88-82.51l.07-2.34c-2-1.43-4.06-4.02-6-3.93-1.75,.07-4.34,2.84-4.82,4.84-.78,3.23,1.82,5.55,4.95,5.16,2.06-.26,3.88-2.42,5.8-3.73Zm-88.79-4.56c-.08,.8-.16,1.59-.24,2.39,1.74,1.49,3.27,3.72,5.27,4.3,3.14,.91,5.9-1.09,5.61-4.32-.18-1.99-2.46-4.96-4.21-5.3-1.88-.36-4.26,1.84-6.43,2.93Zm-41.15,11.38l-.08,2.36c1.98,1.41,4,3.95,5.94,3.89,1.75-.05,4.43-2.7,4.9-4.64,.76-3.14-1.67-5.58-4.9-5.16-2.07,.27-3.91,2.3-5.85,3.55Zm-4.81,23.27c-.04,.74-.08,1.48-.11,2.22,1.82,1.47,3.46,3.78,5.5,4.21,3.09,.65,5.37-1.39,5.55-4.78,.17-3.4-1.92-5.65-5.05-5.33-2.07,.22-3.93,2.38-5.88,3.68Zm40.98-10.58l.04,2.23c1.89,1.37,3.67,3.62,5.71,3.9,3.04,.4,5.27-1.62,5.2-5.13-.07-3.46-2.25-5.49-5.34-4.98-2.03,.34-3.75,2.59-5.61,3.98Zm73.51-14.45l-.07-2.25c-2.14-1.25-4.39-3.62-6.39-3.43-1.78,.17-4.41,3.04-4.64,4.97-.37,3.02,2.12,5.5,5.41,4.72,2.1-.49,3.81-2.62,5.69-4.01Zm-112.22,73.8c.02-.7,.05-1.41,.07-2.11-1.98-1.29-3.84-3.33-5.98-3.69-3.27-.54-5.52,1.94-5.13,5.06,.22,1.76,2.82,4.74,3.91,4.56,2.52-.43,4.76-2.44,7.12-3.82Zm-32.21-54.62c3.07-.13,5.26-2.21,4.51-5.29-.47-1.92-3.24-4.54-4.97-4.53-1.71,0-4.47,2.69-4.88,4.6-.64,3.01,1.44,5.22,5.34,5.23Zm4.7,34.4c-.05,.75-.09,1.5-.14,2.24,1.79,1.49,3.38,3.79,5.41,4.28,3.08,.74,5.43-1.19,5.66-4.59,.23-3.38-1.74-5.64-4.97-5.29-2.08,.22-3.98,2.18-5.96,3.35Zm173.37-59.55l2.3,.06c1.43-2.01,4.35-4.43,3.93-5.93-.57-2.05-3.48-4.06-5.78-4.71-.96-.27-4.09,3.03-4.1,4.73-.02,1.93,2.33,3.89,3.65,5.84ZM110.58,201.71c-3-2.57-4.68-4.01-6.36-5.45-1.4,2.45-3.03,4.82-4.01,7.44-.19,.49,2.56,3.02,3.27,2.75,2.11-.78,3.88-2.48,7.1-4.74Zm-15.86,23.48c1.72,1.99,2.85,3.3,3.98,4.61,1.73-1.65,4.79-3.28,4.83-4.97,.04-1.77-2.82-3.61-4.42-5.42-1.28,1.68-2.55,3.36-4.39,5.78ZM224.57,101.64l-9.49,2.68c.82,3.94,2.89,5.86,6.33,4.96,3.66-.95,4.77-3.63,3.16-7.64Zm-95.02,138.02c.68,.24,1.37,.48,2.05,.72l7.34-6.21c-.11-.6-.21-1.19-.32-1.79-2.29,.12-5.31-.61-6.69,.57-1.56,1.34-1.66,4.4-2.39,6.7ZM246.14,97.56c-3.73,.57-6.92,1.05-10.11,1.54l-.71,1.49c1.83,1.12,3.57,2.98,5.51,3.21,3.33,.4,4.99-1.91,5.31-6.24Zm-51.14,13.74c1.58,3.62,4.13,4.37,6.98,3.14,2.6-1.13,3.8-3.35,2.36-6.69-3.2,1.22-6.17,2.35-9.34,3.56Zm-64.93,41.46c.25,.66,.5,1.31,.74,1.97,2.13-.54,4.85-.47,6.21-1.79,1.28-1.25,1.13-3.97,1.6-6.04-.54-.22-1.08-.44-1.62-.65l-6.94,6.52Zm75.34,42.48l-.18-2.19c-2.18-.1-4.76-.96-6.43-.08-1.6,.85-2.26,3.49-3.33,5.35,.44,.33,.88,.66,1.32,.99,2.87-1.35,5.75-2.71,8.62-4.06Zm-109.49,57.4c4.39-4.46,4.18-6.54-.64-9.18,.21,3.05,.41,5.81,.64,9.18Zm15.02,8.54c-5.6-.54-7.42,2-5.22,6.96,1.75-2.33,3.41-4.54,5.22-6.96Z"/><path class="d" d="M140.56,458.43c-1.56-16.97-8.98-30.38-24.57-39.56,8.34-3.76,15.63-1.6,22.32,1.22,6.99,2.95,13.41,7.27,19.95,11.21,.97,.59,1.82,2.51,1.64,3.64-.39,2.4-.93,5.15-2.4,6.94-4.9,5.97-10.25,11.59-15.42,17.34-.51-.27-1.01-.53-1.52-.8Z"/><path class="d" d="M470.88,252.44c-2.55,17.03,2.91,31.36,15.82,44.05-9.38,1.59-17.71,3.46-26.23,1.32-1.03-.26-2.36-2.55-2.22-3.74,1.38-11.7,2.69-23.44,4.88-35,.55-2.9,4.23-5.2,6.47-7.77,.43,.38,.86,.76,1.29,1.14Z"/><path class="d" d="M229.36,454.58c-8.88,8.61-9.9,21.41-18.68,29.08-4.95-7.17-9.6-13.91-14.39-20.84,7.78-11.55,14.23-13.38,33.07-8.24Z"/><path class="d" d="M460.69,366.96c-10.18-1.88-20.12-3.71-30.64-5.65,3.36-5.9,5.71-12.54,10.21-16.98,2.78-2.74,8.86-2.18,13.48-2.95,.32-.05,1.07,1.13,1.24,1.84,1.81,7.34,3.55,14.7,5.71,23.75Z"/><path class="d" d="M358.9,464.15c-1.09,1.96-1.81,5-3.29,5.44-1.5,.44-4.34-1.24-5.58-2.79-4.45-5.58-8.49-11.49-12.64-17.31-2.22-3.11-1.84-5.43,2.02-6.97,3.08-1.23,5.89-3.17,9.02-4.19,1.34-.43,4.39,.36,4.61,1.15,2.16,8,3.9,16.11,5.86,24.68Z"/><path class="d" d="M389.68,409.7c4.41-4.62,8.97-9.4,13.31-13.95,4.97,6.45,9.99,12.59,14.51,19.07,1.38,1.98,2.7,5.73,1.76,7.26-1.99,3.23-5.33,1.19-7.94-.25-7.12-3.92-14.18-7.94-21.64-12.13Z"/><path class="d" d="M266.66,457.47h21.88c-1.55,9.35-3.13,18.88-4.7,28.42-.55,.1-1.1,.2-1.66,.3-7.72-7.79-9.07-19.09-15.52-28.72Z"/><path class="e" d="M424.02,230.08c-1.89-12.46-3.77-24.91-5.67-37.37-.13-.82-.61-1.72-.4-2.44,.44-1.56,1.22-3.03,1.87-4.53,1.33,1.03,3.43,1.81,3.86,3.12,2.23,6.95,4.36,13.97,5.94,21.09,7.48,33.81,6.02,67.29-6.06,99.76-17.06,45.88-47.63,79.76-92.14,100.9-70.98,33.72-157.37,17.03-212.26-46.32-.33-.38-.85-.71-.94-1.14-.41-1.89-.71-3.8-1.04-5.71,1.9,.52,4.2,.52,5.63,1.64,8.65,6.72,16.56,14.55,25.72,20.42,31.72,20.33,66.23,32.22,104.34,32.31,67.61,.16,129.11-41.08,155.18-104.14,9.86-23.86,14.48-48.07,15.96-77.62Z"/><path class="e" d="M136.43,103.71c-4.06-1.67-8.35-2.96-12.06-5.2-1.46-.88-2.27-3.98-2.1-5.95,.1-1.13,2.66-2.33,4.31-2.96,1.49-.58,3.27-.64,4.91-.58,10.24,.34,17.87-4.04,23.44-12.5,.79-1.2,2.43-1.85,3.67-2.75,.79,1.5,2.15,2.94,2.29,4.5,1.13,12.61-10.72,24.57-24.46,25.45Z"/><path class="e" d="M184.9,63.77c8.21,.54,14.95-2.4,20.4-8.52,1.55-1.74,3.02-3.66,4.91-4.93,1.57-1.06,4.52-2.37,5.41-1.69,1.69,1.3,3.42,4.05,3.23,6.01-.9,9.27-6.15,15.76-14.86,18.83-8.69,3.06-17.1,2.25-24.2-4.29-1.07-.99-1.45-2.73-2.15-4.12,1.43-.5,2.82-1.13,4.29-1.44,.94-.2,1.98,.08,2.98,.15Z"/><path class="e" d="M180.5,139.76c-2.13,1.32-4.35,3.79-6.36,3.63-1.75-.14-4.3-3.09-4.62-5.1-.5-3.17,2.21-5.51,5.33-4.91,2.1,.4,3.82,2.75,5.71,4.23l-.06,2.14Z"/><path class="e" d="M221.55,128.56c-1.92,1.41-3.68,3.62-5.79,4.04-3.24,.64-5.25-1.67-5.4-4.98-.15-3.2,1.86-5.4,4.81-4.98,2.24,.32,4.24,2.42,6.34,3.72l.04,2.2Z"/><path class="e" d="M145.2,184.35c1.44,1.9,3.67,3.61,4.15,5.73,.73,3.22-1.64,5.82-4.75,5.39-1.96-.28-4.88-2.89-5.02-4.64-.17-2.03,2.25-4.27,3.54-6.41l2.08-.06Z"/><path class="e" d="M255.21,122.57c-1.3-2.12-3.73-4.33-3.55-6.32,.16-1.76,3.06-4.33,5.03-4.63,3.12-.46,5.51,2.22,4.94,5.33-.38,2.07-2.73,3.79-4.2,5.66-.74-.02-1.48-.04-2.22-.05Z"/><path class="e" d="M120.27,243.57c-2.06,1.37-4.2,3.89-6.16,3.76-1.75-.12-4.6-3.17-4.59-4.92,.01-1.78,2.82-4.86,4.57-4.98,1.97-.13,4.12,2.4,6.19,3.77v2.36Z"/><path class="e" d="M139.86,206.38c2.38,3.41,4.64,5.24,4.86,7.28,.32,3.03-1.79,5.29-5.26,5.13-3.37-.16-5.5-2.33-4.88-5.46,.4-2.03,2.7-3.69,5.29-6.95Z"/><path class="e" d="M168.71,167.7c-1.44-2-4.01-4.02-3.96-5.98,.04-1.72,2.8-4.34,4.77-4.81,3.13-.75,5.66,1.62,5.23,4.86-.27,2.08-2.42,3.91-3.73,5.85l-2.31,.08Z"/><path class="e" d="M191.44,180.45c-2.03,1.44-4.09,4.02-6.08,3.97-1.75-.05-4.45-2.79-4.92-4.78-.77-3.23,1.94-5.57,5.01-5.21,2.1,.24,3.96,2.51,5.93,3.86,.02,.72,.04,1.44,.06,2.16Z"/><path class="e" d="M134.69,174.08c-2.16,1.25-4.44,3.64-6.44,3.42-1.78-.19-4.35-3.12-4.6-5.09-.4-3.13,2.3-5.44,5.47-4.73,2.1,.47,3.81,2.73,5.69,4.19-.04,.74-.08,1.47-.12,2.21Z"/><path class="e" d="M245.62,169.08c-1.28-1.98-3.36-3.85-3.64-5.95-.42-3.17,1.91-5.76,5.13-4.98,1.95,.47,4.62,3.18,4.66,4.95,.05,1.99-2.49,4.04-3.9,6.06l-2.25-.07Z"/><path class="e" d="M303.49,106.99c-1.96,1.27-3.81,3.31-5.92,3.63-3.24,.49-5.7-2.01-5.08-5.08,.4-1.93,3.17-4.64,4.95-4.7,1.99-.06,4.06,2.48,6.1,3.89l-.05,2.26Z"/><path class="e" d="M266.32,133.18c1.91-1.37,3.71-3.63,5.76-3.9,3.07-.39,5.77,1.88,5.04,5.13-.45,2-3.02,4.8-4.76,4.89-1.96,.1-4.06-2.44-6.1-3.83,.02-.77,.03-1.53,.05-2.3Z"/><path class="e" d="M216.67,152.24c-2.14,1.23-4.41,3.59-6.39,3.36-1.77-.2-4.31-3.11-4.56-5.07-.39-3.13,2.25-5.42,5.45-4.65,2.08,.5,3.75,2.71,5.6,4.15-.04,.74-.07,1.48-.11,2.21Z"/><path class="e" d="M232.45,169.43c-1.86,1.45-3.54,3.72-5.61,4.15-3.15,.66-5.85-1.59-5.35-4.79,.31-2.01,2.79-4.97,4.54-5.14,1.98-.2,4.21,2.25,6.34,3.54,.03,.75,.06,1.49,.09,2.24Z"/><path class="e" d="M282.06,151.13c1.86-1.4,3.58-3.63,5.62-4,3.12-.55,5.32,1.58,5.39,4.95,.07,3.4-2.06,5.56-5.23,5.06-2.07-.33-3.84-2.47-5.75-3.8-.01-.74-.02-1.48-.03-2.22Z"/><path class="e" d="M266.18,163.59c-1.29-2.07-3.7-4.24-3.54-6.19,.14-1.76,3.12-4.61,4.8-4.58,1.75,.03,4.7,2.84,4.84,4.61,.15,1.96-2.29,4.12-3.61,6.19-.83,0-1.66-.02-2.49-.03Z"/><path class="e" d="M155.11,168.48c-2.07,1.35-4.22,3.87-6.17,3.71-1.74-.14-4.47-3.21-4.5-5.02-.02-1.71,2.82-4.73,4.56-4.85,1.94-.14,4.06,2.35,6.1,3.7,0,.82,0,1.64,0,2.46Z"/><path class="e" d="M207.06,168.08c1.36,2.03,3.52,3.93,3.88,6.12,.48,2.93-1.66,4.8-4.88,4.82-3.48,.02-5.56-2.02-5.13-5.15,.29-2.06,2.44-3.86,3.75-5.77,.79,0,1.58-.01,2.37-.02Z"/><path class="e" d="M122.53,201.78c-1.3-2.07-3.76-4.27-3.56-6.19,.18-1.76,3.06-4.25,5.05-4.58,3.14-.53,5.52,1.98,4.87,5.23-.41,2.05-2.57,3.75-3.95,5.6-.81-.02-1.61-.04-2.42-.06Z"/><path class="e" d="M271.1,110.13c1.85-1.39,3.56-3.59,5.6-3.97,3.11-.58,5.84,1.54,5.24,4.82-.37,2.01-2.81,4.87-4.56,5.05-1.92,.2-4.12-2.24-6.2-3.52l-.07-2.37Z"/><path class="e" d="M350.5,141.75c-4.52-1.26-6.83-3.3-6-6.37,.51-1.88,3.44-4.39,5.17-4.31,1.77,.08,4.69,2.95,4.75,4.68,.06,1.96-2.5,4-3.92,6Z"/><path class="e" d="M252.92,133.97c1.36,1.91,3.6,3.7,3.87,5.75,.4,3.06-1.8,5.77-5.11,4.97-2.01-.48-4.83-2.98-4.91-4.69-.09-1.96,2.44-4.04,3.84-6.07,.77,.01,1.54,.03,2.31,.04Z"/><path class="e" d="M334.28,142.79c-1.22,.9-2.96,3.17-5.01,3.49-3.06,.47-5.26-1.54-5.31-5.03-.04-3.21,1.74-5.08,4.76-5.18,3.22-.1,5.18,1.75,5.56,6.73Z"/><path class="e" d="M309.6,140.81c1.41,1.9,3.72,3.67,4,5.72,.42,3.03-1.81,5.8-5.06,5.11-1.99-.42-4.76-2.95-4.9-4.71-.16-1.93,2.32-4.06,3.65-6.11h2.31Z"/><path class="e" d="M125.01,220.49c-1.94,1.3-3.77,3.45-5.83,3.7-3.14,.38-5.69-1.94-4.88-5.17,.49-1.96,3.07-4.66,4.78-4.71,1.96-.06,3.99,2.45,6,3.84-.02,.78-.04,1.56-.06,2.34Z"/><path class="e" d="M154.22,207.27c1.98-1.44,3.98-4.03,5.92-3.98,1.74,.05,4.38,2.75,4.88,4.72,.81,3.18-1.67,5.6-4.85,5.24-2.06-.24-3.91-2.36-5.85-3.63l-.09-2.35Z"/><path class="e" d="M319.1,124.77c-1.93,1.31-3.75,3.48-5.8,3.73-3.13,.39-5.73-1.94-4.95-5.16,.48-2,3.08-4.77,4.82-4.84,1.94-.08,3.99,2.51,6,3.93l-.07,2.34Z"/><path class="e" d="M230.31,120.21c2.16-1.08,4.54-3.29,6.43-2.93,1.76,.34,4.03,3.32,4.21,5.3,.29,3.23-2.47,5.23-5.61,4.32-2-.58-3.53-2.81-5.27-4.3,.08-.8,.16-1.59,.24-2.39Z"/><path class="e" d="M189.16,131.59c1.94-1.24,3.78-3.28,5.85-3.55,3.23-.42,5.66,2.01,4.9,5.16-.47,1.94-3.14,4.59-4.9,4.64-1.94,.06-3.96-2.48-5.94-3.89l.08-2.36Z"/><path class="e" d="M184.35,154.86c1.95-1.29,3.82-3.46,5.88-3.68,3.12-.33,5.22,1.93,5.05,5.33-.17,3.39-2.46,5.43-5.55,4.78-2.04-.43-3.68-2.74-5.5-4.21,.04-.74,.08-1.48,.11-2.22Z"/><path class="e" d="M225.32,144.28c1.86-1.39,3.58-3.65,5.61-3.98,3.08-.51,5.27,1.52,5.34,4.98,.07,3.51-2.16,5.53-5.2,5.13-2.04-.27-3.82-2.53-5.71-3.9l-.04-2.23Z"/><path class="e" d="M298.83,129.83c-1.88,1.39-3.6,3.52-5.69,4.01-3.29,.78-5.78-1.7-5.41-4.72,.24-1.93,2.87-4.8,4.64-4.97,2-.19,4.25,2.18,6.39,3.43l.07,2.25Z"/><path class="e" d="M186.61,203.62c-2.36,1.37-4.6,3.39-7.12,3.82-1.09,.18-3.69-2.8-3.91-4.56-.39-3.12,1.86-5.6,5.13-5.06,2.14,.36,3.99,2.4,5.98,3.69-.02,.7-.05,1.41-.07,2.11Z"/><path class="e" d="M154.4,149c-3.9,0-5.98-2.21-5.34-5.23,.41-1.91,3.17-4.59,4.88-4.6,1.73,0,4.5,2.61,4.97,4.53,.76,3.08-1.44,5.16-4.51,5.29Z"/><path class="e" d="M159.1,183.4c1.98-1.18,3.88-3.13,5.96-3.35,3.23-.35,5.19,1.92,4.97,5.29-.23,3.4-2.58,5.33-5.66,4.59-2.03-.49-3.62-2.79-5.41-4.28,.05-.75,.09-1.5,.14-2.24Z"/><path class="e" d="M332.47,123.85c-1.32-1.95-3.67-3.91-3.65-5.84,.02-1.7,3.15-5,4.1-4.73,2.3,.64,5.21,2.66,5.78,4.71,.42,1.5-2.5,3.92-3.93,5.93l-2.3-.06Z"/><path class="e" d="M110.58,201.71c-3.22,2.26-4.99,3.96-7.1,4.74-.71,.26-3.46-2.26-3.27-2.75,.99-2.61,2.61-4.98,4.01-7.44,1.68,1.44,3.36,2.88,6.36,5.45Z"/><path class="e" d="M94.72,225.19c1.84-2.42,3.12-4.1,4.39-5.78,1.59,1.81,4.46,3.65,4.42,5.42-.04,1.69-3.1,3.32-4.83,4.97-1.13-1.31-2.26-2.62-3.98-4.61Z"/><path class="e" d="M224.57,101.64c1.61,4.01,.5,6.69-3.16,7.64-3.45,.89-5.51-1.03-6.33-4.96l9.49-2.68Z"/><path class="e" d="M129.55,239.67c.73-2.31,.83-5.36,2.39-6.7,1.38-1.18,4.4-.46,6.69-.57,.11,.6,.21,1.19,.32,1.79l-7.34,6.21c-.68-.24-1.37-.48-2.05-.72Z"/><path class="e" d="M246.14,97.56c-.33,4.32-1.98,6.64-5.31,6.24-1.94-.23-3.68-2.09-5.51-3.21l.71-1.49c3.19-.49,6.38-.97,10.11-1.54Z"/><path class="e" d="M195,111.3c3.17-1.21,6.14-2.34,9.34-3.56,1.44,3.35,.24,5.57-2.36,6.69-2.84,1.23-5.39,.48-6.98-3.14Z"/><path class="e" d="M130.07,152.76l6.94-6.52c.54,.22,1.08,.44,1.62,.65-.48,2.07-.32,4.79-1.6,6.04-1.36,1.33-4.08,1.25-6.21,1.79-.25-.66-.5-1.31-.74-1.97Z"/><path class="e" d="M205.41,195.24c-2.87,1.35-5.75,2.71-8.62,4.06-.44-.33-.88-.66-1.32-.99,1.07-1.85,1.73-4.5,3.33-5.35,1.66-.88,4.25-.02,6.43,.08l.18,2.19Z"/><path class="e" d="M95.92,252.64c-.23-3.36-.43-6.12-.64-9.18,4.82,2.63,5.03,4.71,.64,9.18Z"/><path class="e" d="M110.93,261.18c-1.82,2.42-3.47,4.63-5.22,6.96-2.2-4.96-.37-7.5,5.22-6.96Z"/></g></g></g></svg>